# File created by Blade
# Date/Time:  Thu Jan 22 18:06:27 2015
# Frame Rate: 120.000 fps
#------------------------------------------------------
:FULLY-SPECIFIED
:DEGREES
2687
root 1.106249 32.969816 -2.881534 7.991201 -4.882934 0.084959
RightUpLeg -17.216552 16.176225 -8.891243
RightLeg 84.654309 -0.000000 -0.000000
RightFoot 2.227467 -10.605896 0.005451
RightToeBase -2.628603 -0.000000 0.000000
LeftUpLeg -3.602685 1.807600 -10.044012
LeftLeg 0.692056 -0.000000 -0.000000
LeftFoot -10.833933 4.774645 -6.130520
LeftToeBase 6.077310 -0.000000 -0.000000
Spine -9.064068 -4.232702 -1.818125
RightShoulder -18.191522 -17.811264 -20.080434
RightArm 24.745119 21.117736 52.162142
RightForeArm -4.656108 -0.000000 21.135354
RightHand 11.704681 -0.000000 0.036559
RightHandThumb1 -24.326973 -0.000000 -32.862282
LeftShoulder -21.320012 4.758000 25.261384
LeftArm 8.262978 -41.713645 -52.630666
LeftForeArm 9.182340 -0.000000 65.829060
LeftHand -2.088861 -0.000000 34.925064
LeftHandThumb1 -26.253704 0.000000 33.147579
Head 12.764668 -4.171545 0.189999
2688
root 1.107009 32.966483 -2.885826 7.972734 -4.925490 0.119828
RightUpLeg -17.261369 16.054421 -8.855128
RightLeg 84.688776 -0.000000 -0.000000
RightFoot 2.286231 -10.593791 -0.018836
RightToeBase -3.086315 -0.000000 0.000000
LeftUpLeg -3.606177 1.869690 -10.085756
LeftLeg 0.714327 -0.000000 -0.000000
LeftFoot -10.856704 4.750608 -6.148704
LeftToeBase 5.977209 -0.000000 -0.000000
Spine -9.041396 -4.216234 -1.856547
RightShoulder -18.167850 -17.796126 -20.076762
RightArm 24.768134 21.098143 52.174487
RightForeArm -4.695687 -0.000000 21.119080
RightHand 11.730040 -0.000000 0.097997
RightHandThumb1 -24.326973 -0.000000 -32.862282
LeftShoulder -21.319105 4.798098 25.257368
LeftArm 8.228331 -41.734995 -52.602077
LeftForeArm 9.130385 -0.000000 65.849500
LeftHand -2.096795 0.000000 34.973691
LeftHandThumb1 -26.253704 0.000000 33.147579
Head 12.761195 -4.174181 0.190812
2689
root 1.107823 32.963341 -2.888962 7.962113 -4.944391 0.152484
RightUpLeg -17.287372 15.927286 -8.812353
RightLeg 84.718356 -0.000000 -0.000000
RightFoot 2.222636 -10.580427 0.136637
RightToeBase -2.792936 -0.000000 0.000000
LeftUpLeg -3.600685 1.811187 -10.115882
LeftLeg 0.711734 -0.000000 -0.000000
LeftFoot -10.885695 4.807144 -6.223621
LeftToeBase 6.050598 -0.000000 -0.000000
Spine -9.038638 -4.200190 -1.881933
RightShoulder -18.176410 -17.782848 -20.081793
RightArm 24.799631 21.045659 52.191620
RightForeArm -4.697250 -0.000000 21.115228
RightHand 11.647922 0.000000 0.116024
RightHandThumb1 -24.326973 -0.000000 -32.862282
LeftShoulder -21.321207 4.795886 25.247597
LeftArm 8.217070 -41.718444 -52.572655
LeftForeArm 9.111048 0.000000 65.845842
LeftHand -2.121891 -0.000000 35.046830
LeftHandThumb1 -26.253704 0.000000 33.147579
Head 12.773325 -4.207563 0.169127
2690
root 1.107974 32.961061 -2.894231 7.965550 -4.962133 0.187875
RightUpLeg -17.341071 15.788683 -8.770619
RightLeg 84.733346 -0.000000 -0.000000
RightFoot 2.301937 -10.581771 0.045612
RightToeBase -2.819324 -0.000000 0.000000
LeftUpLeg -3.624989 1.811295 -10.151146
LeftLeg 0.732028 -0.000000 -0.000000
LeftFoot -10.908582 4.813464 -6.258959
LeftToeBase 6.101453 -0.000000 -0.000000
Spine -9.053614 -4.200134 -1.912746
RightShoulder -18.155456 -17.732029 -20.100905
RightArm 24.785134 20.982086 52.204630
RightForeArm -4.721317 -0.000000 21.106233
RightHand 11.639118 -0.000000 0.150442
RightHandThumb1 -24.326973 -0.000000 -32.862282
LeftShoulder -21.336648 4.788500 25.233964
LeftArm 8.213325 -41.705872 -52.539027
LeftForeArm 9.122913 -0.000000 65.838653
LeftHand -2.114904 -0.000000 35.059355
LeftHandThumb1 -26.253704 0.000000 33.147579
Head 12.804175 -4.201335 0.161834
2691
root 1.108180 32.958112 -2.897037 7.947946 -4.977181 0.228240
RightUpLeg -17.356700 15.642229 -8.718551
RightLeg 84.749375 -0.000000 -0.000000
RightFoot 2.401167 -10.629326 -0.158917
RightToeBase -3.093787 -0.000000 0.000000
LeftUpLeg -3.621505 1.835223 -10.192033
LeftLeg 0.745029 -0.000000 -0.000000
LeftFoot -10.903644 4.793683 -6.282470
LeftToeBase 6.001617 -0.000000 -0.000000
Spine -9.047506 -4.201745 -1.951131
RightShoulder -18.141762 -17.689133 -20.118929
RightArm 24.770026 20.912619 52.221401
RightForeArm -4.709359 -0.000000 21.119369
RightHand 11.597233 -0.000000 0.201497
RightHandThumb1 -24.326973 -0.000000 -32.862282
LeftShoulder -21.355811 4.785639 25.220728
LeftArm 8.218048 -41.698188 -52.511661
LeftForeArm 9.093535 -0.000000 65.838397
LeftHand -2.092669 -0.000000 35.067121
LeftHandThumb1 -26.253704 0.000000 33.147579
Head 12.825492 -4.197259 0.153946
2692
root 1.108512 32.955771 -2.899535 7.931371 -4.989984 0.254794
RightUpLeg -17.372767 15.504925 -8.662767
RightLeg 84.751338 -0.000000 -0.000000
RightFoot 2.395723 -10.649183 -0.019416
RightToeBase -2.807817 -0.000000 0.000000
LeftUpLeg -3.608268 1.835222 -10.216499
LeftLeg 0.744687 -0.000000 -0.000000
LeftFoot -10.931858 4.794449 -6.332079
LeftToeBase 6.088233 -0.000000 -0.000000
Spine -9.049128 -4.188378 -1.973440
RightShoulder -18.150949 -17.674813 -20.117382
RightArm 24.797454 20.864394 52.244014
RightForeArm -4.716934 -0.000000 21.095151
RightHand 11.621117 0.000000 0.216856
RightHandThumb1 -24.326973 -0.000000 -32.862282
LeftShoulder -21.338735 4.788060 25.211530
LeftArm 8.205347 -41.711314 -52.500969
LeftForeArm 9.097204 -0.000000 65.856867
LeftHand -2.083099 -0.000000 35.059356
LeftHandThumb1 -26.253704 0.000000 33.147579
Head 12.869170 -4.211764 0.133491
2693
root 1.108834 32.953706 -2.901060 7.916328 -4.997312 0.283080
RightUpLeg -17.378259 15.339797 -8.601895
RightLeg 84.728296 -0.000000 -0.000000
RightFoot 2.357305 -10.692414 0.048850
RightToeBase -2.767579 -0.000000 0.000000
LeftUpLeg -3.595407 1.847075 -10.243383
LeftLeg 0.741626 -0.000000 -0.000000
LeftFoot -10.943527 4.784077 -6.381730
LeftToeBase 6.003515 -0.000000 -0.000000
Spine -9.052705 -4.202527 -1.992684
RightShoulder -18.141176 -17.668652 -20.115201
RightArm 24.822347 20.822994 52.267016
RightForeArm -4.690196 -0.000000 21.098325
RightHand 11.655480 -0.000000 0.247694
RightHandThumb1 -24.326973 -0.000000 -32.862282
LeftShoulder -21.381753 4.743798 25.209694
LeftArm 8.211792 -41.672515 -52.497073
LeftForeArm 9.143353 -0.000000 65.851831
LeftHand -2.072964 -0.000000 35.048947
LeftHandThumb1 -26.253704 0.000000 33.147579
Head 12.902562 -4.203545 0.115661
2694
root 1.108856 32.952098 -2.902685 7.906656 -5.009936 0.303183
RightUpLeg -17.391119 15.184166 -8.532624
RightLeg 84.715566 -0.000000 -0.000000
RightFoot 2.285531 -10.759061 0.159473
RightToeBase -2.633015 -0.000000 0.000000
LeftUpLeg -3.593682 1.883978 -10.265128
LeftLeg 0.749301 -0.000000 -0.000000
LeftFoot -10.958788 4.754338 -6.424077
LeftToeBase 5.953549 -0.000000 -0.000000
Spine -9.066330 -4.188869 -2.004467
RightShoulder -18.133396 -17.705446 -20.111314
RightArm 24.851233 20.832757 52.317780
RightForeArm -4.713138 -0.000000 21.116531
RightHand 11.674645 -0.000000 0.246489
RightHandThumb1 -24.326973 -0.000000 -32.862282
LeftShoulder -21.405032 4.784750 25.168010
LeftArm 8.310833 -41.692334 -52.553673
LeftForeArm 9.169387 -0.000000 65.865149
LeftHand -2.069361 -0.000000 34.967878
LeftHandThumb1 -26.253704 0.000000 33.147579
Head 12.948856 -4.216800 0.099693
2695
root 1.108117 32.950817 -2.902919 7.887718 -5.009318 0.321800
RightUpLeg -17.378544 15.008991 -8.450510
RightLeg 84.682408 -0.000000 -0.000000
RightFoot 2.330365 -10.834319 0.078491
RightToeBase -2.779552 -0.000000 0.000000
LeftUpLeg -3.575964 1.887452 -10.279182
LeftLeg 0.752636 -0.000000 -0.000000
LeftFoot -10.975764 4.749509 -6.440876
LeftToeBase 5.894002 -0.000000 -0.000000
Spine -9.076464 -4.182849 -2.014862
RightShoulder -18.135641 -17.690482 -20.113533
RightArm 24.841191 20.777099 52.331403
RightForeArm -4.676000 -0.000000 21.126899
RightHand 11.689951 -0.000000 0.309589
RightHandThumb1 -24.326973 -0.000000 -32.862282
LeftShoulder -21.451357 4.736677 25.165639
LeftArm 8.378434 -41.624985 -52.592780
LeftForeArm 9.222873 -0.000000 65.847219
LeftHand -2.086627 0.000000 34.991604
LeftHandThumb1 -26.253704 0.000000 33.147579
Head 13.000950 -4.222827 0.090680
2696
root 1.107913 32.949803 -2.903400 7.863682 -5.005910 0.340186
RightUpLeg -17.367650 14.823943 -8.378976
RightLeg 84.654063 -0.000000 -0.000000
RightFoot 2.207174 -10.841605 0.224275
RightToeBase -2.678462 -0.000000 0.000000
LeftUpLeg -3.557759 1.906380 -10.294674
LeftLeg 0.762922 -0.000000 -0.000000
LeftFoot -10.985538 4.725189 -6.467770
LeftToeBase 5.799584 -0.000000 -0.000000
Spine -9.071976 -4.183215 -2.029008
RightShoulder -18.129193 -17.721089 -20.096353
RightArm 24.859724 20.757202 52.352436
RightForeArm -4.674084 -0.000000 21.127797
RightHand 11.714444 -0.000000 0.309491
RightHandThumb1 -24.326973 -0.000000 -32.862282
LeftShoulder -21.421702 4.790194 25.141160
LeftArm 8.407350 -41.696563 -52.639346
LeftForeArm 9.258436 -0.000000 65.893456
LeftHand -2.067831 0.000000 34.915075
LeftHandThumb1 -26.253704 0.000000 33.147579
Head 13.035830 -4.226696 0.085787
2697
root 1.107302 32.948985 -2.901786 7.836990 -4.993282 0.359420
RightUpLeg -17.335883 14.626537 -8.296465
RightLeg 84.602266 -0.000000 -0.000000
RightFoot 2.223366 -10.896680 0.206813
RightToeBase -2.520122 -0.000000 0.000000
LeftUpLeg -3.531127 1.925332 -10.311259
LeftLeg 0.767735 -0.000000 -0.000000
LeftFoot -10.986189 4.666580 -6.615536
LeftToeBase 5.732604 -0.000000 -0.000000
Spine -9.074328 -4.192143 -2.044172
RightShoulder -18.122995 -17.719146 -20.092902
RightArm 24.859557 20.752657 52.394816
RightForeArm -4.739042 -0.000000 21.127450
RightHand 11.705711 0.000000 0.309286
RightHandThumb1 -24.326973 -0.000000 -32.862282
LeftShoulder -21.428026 4.776717 25.146540
LeftArm 8.426848 -41.679634 -52.672703
LeftForeArm 9.305150 -0.000000 65.915469
LeftHand -2.111820 0.000000 34.905279
LeftHandThumb1 -26.253704 0.000000 33.147579
Head 13.078144 -4.232552 0.083503
2698
root 1.105741 32.948184 -2.899365 7.800814 -4.974076 0.372131
RightUpLeg -17.287506 14.418639 -8.199442
RightLeg 84.543484 -0.000000 -0.000000
RightFoot 2.203327 -10.950184 0.256827
RightToeBase -2.583396 -0.000000 0.000000
LeftUpLeg -3.487434 1.907488 -10.317795
LeftLeg 0.763229 -0.000000 -0.000000
LeftFoot -10.996010 4.678876 -6.659792
LeftToeBase 5.531137 -0.000000 -0.000000
Spine -9.066507 -4.192470 -2.057561
RightShoulder -18.138874 -17.699434 -20.077238
RightArm 24.848509 20.698429 52.395672
RightForeArm -4.713755 -0.000000 21.107343
RightHand 11.686749 -0.000000 0.282587
RightHandThumb1 -24.326973 -0.000000 -32.862282
LeftShoulder -21.403490 4.765189 25.154695
LeftArm 8.416244 -41.676017 -52.687990
LeftForeArm 9.323630 -0.000000 65.946557
LeftHand -2.108409 -0.000000 34.875546
LeftHandThumb1 -26.253704 0.000000 33.147579
Head 13.121039 -4.255817 0.086511
